Coordinates
version=1
nRows=25
nColumns=33
inDegrees=yes

Units are S.I. units (second, meters, Newtons, ...)
Angles are in degrees.

endheader
time	ground_thorax_rot_x	ground_thorax_rot_y	ground_thorax_rot_z	ground_thorax_tx	ground_thorax_ty	ground_thorax_tz	clav_prot_r	clav_elev_r	scapula_abduction_r	scapula_elevation_r	scapula_upward_rot_r	scapula_winging_r	shoulder_elv_r	plane_of_elev_r	axial_rot_r	elbow_flexion_r	pro_sup_r	wrist_flex_r	wrist_dev_r	clav_prot_l	clav_elev_l	scapula_abduction_l	scapula_elevation_l	scapula_upward_rot_l	scapula_winging_l	shoulder_elv_l	plane_of_elev_l	axial_rot_l	elbow_flexion_l	pro_sup_l	wrist_flex_l	wrist_dev_l	
4.4500	35.148515	13.721803	18.259294	-242.661917	820.087089	1.587661	17.923746	44.999999	44.536436	45.000000	44.986873	3215.229647	-1619.998578	-89.999987	-99.672216	1801.756290	203.666142	16.849683	12.414913	11.663292	-45.000000	-38.528189	45.000000	-43.862052	-2780.095153	-452.864744	139.226490	165.590211	1819.089079	131.896141	-5.297680	-14.931349	
4.4600	35.251122	13.692734	18.285360	-243.025595	819.622902	1.549790	18.061970	44.999999	44.686961	45.000000	44.931218	3215.234404	-1619.066976	-89.999977	-100.592633	1802.023350	205.748179	16.866497	12.485807	11.337439	-45.000000	-38.237881	45.000000	-43.928219	-2780.022981	-452.919551	139.005816	166.053903	1818.632563	127.420942	-4.643572	-15.327039	
4.4700	35.349431	13.649073	18.305746	-243.320515	819.155708	1.509967	18.196028	44.999998	44.842142	45.000000	44.891856	3215.231731	-1618.131791	-89.999959	-101.512265	1802.246511	208.085856	16.874996	12.604916	10.958163	-45.000000	-37.990216	45.000000	-43.854227	-2779.900173	-453.021551	138.739659	166.802063	1817.931091	120.799307	-3.713142	-15.906899	
4.4800	35.421125	13.651661	18.385487	-243.456006	818.686484	1.464072	18.350553	44.999996	44.924277	45.000000	44.845578	3215.252737	-1617.285880	-89.999927	-102.330463	1802.347171	211.269046	17.061003	12.521022	10.763322	-45.000000	-37.800616	45.000000	-43.705580	-2779.812561	-453.150837	138.421693	168.475359	1816.521661	108.157435	-2.052052	-16.715556	
4.4900	35.472187	13.675260	18.499011	-243.441079	818.215513	1.412795	18.468867	44.999993	44.967646	45.000000	44.800604	3215.283036	-1616.516073	-89.999869	-103.062899	1802.368030	214.879917	17.337885	12.347102	10.650892	-45.000000	-37.673350	45.000000	-43.449886	-2779.729561	-453.318105	138.060379	170.797208	1814.564373	90.854255	0.154363	-17.778266	
4.5000	35.503008	13.708584	18.637056	-243.276677	817.745810	1.355572	18.556136	44.999987	44.980062	45.000000	44.765825	3215.317888	-1615.854273	-89.999766	-103.679973	1802.326588	218.592320	17.671881	12.122503	10.602157	-45.000000	-37.608991	45.000000	-43.107931	-2779.651143	-453.512663	137.673823	173.570558	1812.212129	70.141927	2.764045	-19.014162	
4.5100	35.515021	13.745256	18.788054	-242.992119	817.283362	1.292086	18.567754	44.999976	44.975519	45.000000	44.740647	3215.334078	-1615.399115	-89.999581	-104.093622	1802.270512	221.380442	17.968794	11.947803	10.581166	-45.000000	-37.596447	45.000000	-42.798436	-2779.600411	-453.691131	137.348621	176.072544	1810.082090	51.379614	5.069205	-20.163288	
4.5200	35.513095	13.763664	18.934222	-242.627487	816.837266	1.221224	18.559985	44.999957	44.968269	45.000000	44.739841	3215.331976	-1615.109172	-89.999249	-104.346511	1802.208666	223.300509	18.206884	11.851929	10.554173	-45.000000	-37.612229	45.000000	-42.508520	-2779.560687	-453.845675	137.075840	178.190913	1808.249771	35.174598	7.045777	-21.162820	
4.5300	35.497155	13.767183	19.073545	-242.216893	816.418974	1.140471	18.491989	44.999924	44.960948	45.000000	44.754799	3215.295536	-1615.058074	-89.998655	-104.373034	1802.158564	223.746459	18.345524	11.865499	10.534916	-45.000000	-37.641882	45.000000	-42.357202	-2779.561883	-453.936576	136.918889	179.444045	1807.163718	25.509810	8.149727	-21.809232	
4.5400	35.465634	13.753654	19.204999	-241.785393	816.040671	1.046357	18.423004	44.999863	44.947859	45.000000	44.785070	3215.240226	-1615.189394	-89.997590	-104.227567	1802.103070	223.172072	18.412672	11.965451	10.527458	-45.000000	-37.679043	45.000000	-42.312527	-2779.585216	-453.972245	136.848228	180.000000	1806.702543	21.277993	8.570686	-22.123051	
4.5500	35.426418	13.719418	19.329703	-241.346633	815.713491	0.935025	18.350522	44.999755	44.940181	45.000000	44.821955	3215.166025	-1615.453737	-89.995684	-103.957724	1802.027823	221.908272	18.430437	12.122144	10.535521	-45.000000	-37.710980	45.000000	-42.349836	-2779.628157	-453.962106	136.847408	180.000000	1806.747778	21.525848	8.416090	-22.176281	
4.5600	35.382978	13.663834	19.448751	-240.903116	815.446193	0.802776	18.317102	44.999561	44.937338	45.000000	44.863751	3215.101010	-1615.723094	-89.992268	-103.682598	1801.918737	220.887942	18.462269	12.270886	10.558574	-45.000000	-37.740699	45.000000	-42.362368	-2779.656945	-453.943664	136.836918	180.000000	1806.795635	21.807199	8.294545	-22.195760	
4.5700	35.340722	13.590562	19.565329	-240.446952	815.243510	0.646526	18.278619	44.999214	44.949025	45.000000	44.899200	3215.039777	-1615.995268	-89.986152	-103.404017	1801.789094	220.052931	18.501707	12.410284	10.591324	-45.000000	-37.773272	45.000000	-42.361466	-2779.678150	-453.921857	136.823797	180.000000	1806.841776	22.091768	8.176029	-22.223433	
4.5800	35.295718	13.514920	19.687379	-239.962812	815.106347	0.464173	18.240767	44.998592	44.960376	45.000000	44.921818	3214.991235	-1616.276991	-89.975188	-103.114647	1801.651198	219.364789	18.549018	12.543156	10.633971	-45.000000	-37.822823	45.000000	-42.359214	-2779.691749	-453.899269	136.812037	180.000000	1806.894915	22.365864	8.078528	-22.246786	
4.5900	35.256734	13.434103	19.811084	-239.430531	815.031815	0.254979	18.205386	44.997479	44.977125	45.000000	44.930512	3214.942769	-1616.567307	-89.955570	-102.814435	1801.497534	218.792909	18.602509	12.662661	10.684026	-45.000000	-37.877364	45.000000	-42.351090	-2779.708006	-453.876121	136.802031	180.000000	1806.952449	22.613809	7.995923	-22.271071	
4.6000	35.220898	13.357931	19.935157	-238.827993	815.014566	0.020022	18.172972	44.995482	44.986801	45.000000	44.921965	3214.893780	-1616.877967	-89.920368	-102.489808	1801.333306	218.311452	18.662675	12.767853	10.736167	-45.000000	-37.940054	45.000000	-42.349011	-2779.730751	-453.847456	136.787647	180.000000	1807.017592	22.828771	7.935582	-22.295053	
4.6100	35.191476	13.284810	20.056460	-238.133103	815.047952	-0.237338	18.144877	44.991914	44.993285	45.000000	44.886658	3214.832118	-1617.220396	-89.857484	-102.126213	1801.157463	217.893549	18.726862	12.853625	10.784121	-45.000000	-38.002078	45.000000	-42.343650	-2779.769184	-453.811493	136.771243	180.000000	1807.088980	23.003949	7.891645	-22.319457	
4.6200	35.164643	13.220824	20.175968	-237.325628	815.125670	-0.511104	18.119592	44.985496	44.987953	45.000000	44.808501	3214.750933	-1617.621567	-89.744356	-101.690872	1800.979617	217.509835	18.793486	12.919699	10.824005	-45.000000	-38.071324	45.000000	-42.328104	-2779.823042	-453.767631	136.751603	180.000000	1807.163452	23.137308	7.866337	-22.343158	
4.6300	35.146647	13.158322	20.287902	-236.388220	815.242684	-0.792705	18.093642	44.974076	44.978470	45.000000	44.662877	3214.627872	-1618.119346	-89.543065	-101.136154	1800.804724	217.120334	18.857644	12.961885	10.857393	-45.000000	-38.146866	45.000000	-42.271845	-2779.891668	-453.719827	136.731366	180.000000	1807.235899	23.226261	7.854477	-22.364047	
4.6400	35.136284	13.095733	20.389920	-235.306907	815.395554	-1.071712	18.062717	44.953402	44.961293	45.000000	44.397214	3214.426962	-1618.792086	-89.178716	-100.364473	1800.653989	216.666424	18.913289	12.978101	10.880745	-45.000000	-38.235909	45.000000	-42.152416	-2779.971660	-453.671874	136.712200	180.000000	1807.299817	23.270023	7.856489	-22.379516	
4.6500	35.133615	13.028282	20.476799	-234.071182	815.582144	-1.337096	18.016713	44.916977	44.931058	45.000000	43.925962	3214.092802	-1619.749274	-88.536607	-99.236703	1800.554166	216.063753	18.949263	12.961077	10.893191	-45.000000	-38.349554	45.000000	-41.905856	-2780.056062	-453.642948	136.703154	180.000000	1807.334676	23.263853	7.865869	-22.381251	
4.6600	35.141040	12.947633	20.539822	-232.673842	815.801008	-1.578779	17.949142	44.850035	44.875406	45.000000	43.060108	3213.490403	-1621.240486	-87.356972	-97.435870	1800.554369	215.156969	18.950204	12.894292	10.893781	-45.000000	-38.488403	45.000000	-41.517139	-2780.143715	-453.640715	136.704065	180.000000	1807.339198	23.202214	7.884375	-22.366949	
4.6700	35.161431	12.842481	20.566591	-231.110518	816.050516	-1.789006	17.853792	44.734851	44.779882	45.000000	41.569701	3212.459806	-1623.559376	-85.326063	-94.585363	1800.715784	213.766736	18.898255	12.758528	10.882405	-45.000000	-38.655011	45.000000	-40.978610	-2780.230806	-453.669571	136.714334	180.000000	1807.321383	23.076928	7.916245	-22.337022	
4.6800	35.206679	12.685518	20.534859	-229.378944	816.328087	-1.963421	17.724470	44.515323	44.597147	45.000000	38.730842	3210.499830	-1627.584607	-81.458799	-89.469529	1801.247900	211.384844	18.741203	12.487248	10.847479	-45.000000	-38.825823	45.000000	-40.325260	-2780.331970	-453.720561	136.728438	180.000000	1807.302340	22.875552	7.974021	-22.296160	
4.6900	35.281517	12.458336	20.434399	-227.478244	816.629584	-2.100983	17.558875	44.158930	44.302263	45.000000	34.117662	3207.319288	-1633.821218	-75.171518	-81.394686	1802.285267	207.726512	18.446394	12.042439	10.782943	-45.000000	-38.989255	45.000000	-39.570171	-2780.445817	-453.789875	136.737564	180.000000	1807.286277	22.587690	8.063169	-22.243764	
